<svg viewBox="335 309.3111 380 100.3778" width="5000" height="1320.7605263157893" xmlns="http://www.w3.org/2000/svg" xmlns:xlink="http://www.w3.org/1999/xlink" preserveAspectRatio="none"><defs></defs><style>.companyName {fill:#000000;fill-opacity:1;}.icon1 {fill:#9B9B9B;fill-opacity:1;}.icon2 {fill:#CBCBCB;fill-opacity:1;}.icon3 {fill:#767676;fill-opacity:1;}.shapeStroke-str {stroke:#000000;stroke-opacity:1;}.text {fill:#000000;fill-opacity:1;}</style><g opacity="1" transform="rotate(0 335 317.5388)">
<svg width="83.299" height="83.9224" x="335" y="317.5388" version="1.1" preserveAspectRatio="none" viewBox="2.25 2.2834725379943848 19.466562271118164 19.612260818481445">
  <g transform="matrix(1 0 0 1 0 0)" class="icon1"><path d="M6.54558792,9.84755702 L6.54558792,5.5519691 L2.25,5.5519691 L2.25,9.84755702 L6.54558792,9.84755702 Z M2.25,15.8715292 L6.54558792,15.8715292 L6.54558792,11.5759412 L2.25,11.5759412 L2.25,15.8715292 Z M6.54558792,21.8957323 L6.54558792,17.6001451 L2.25,17.6001451 L2.25,21.8957323 L6.54558792,21.8957323 Z M12.5695601,15.8715292 L12.5695601,11.5759412 L8.27397215,11.5759412 L8.27397215,15.8715292 L12.5695601,15.8715292 Z M12.5695601,21.8957323 L12.5695601,17.6001451 L8.27397215,17.6001451 L8.27397215,21.8957323 L12.5695601,21.8957323 Z M18.592837,21.8957323 L18.592837,17.6001451 L14.298176,17.6001451 L14.298176,21.8957323 L18.592837,21.8957323 Z M10.9865638,9.08677186 L14.9345078,7.39216568 L13.2399269,3.44511086 L9.29279238,5.13971704 L10.9865638,9.08677186 Z M19.8458253,15.3873822 L21.2947262,11.3440344 L17.2513784,9.89513345 L15.8024775,13.9384813 L19.8458253,15.3873822 Z M17.4655654,7.15389605 L21.7165629,6.5344294 L21.0971022,2.28347255 L16.8461047,2.90356191 L17.4655654,7.15389605 Z"></path></g>
</svg>
</g><g opacity="1" transform="rotate(0 444.3533 377.1895)">
<svg width="161.8491" height="13.9871" x="444.3533" y="377.1895" version="1.1" preserveAspectRatio="none" viewBox="3.76 -30.88 360.56000000000006 31.16">
  <g transform="matrix(1 0 0 1 0 0)" class="text"><path d="M3.76 0L3.76-28L8.96-28L8.96 0L3.76 0Z M32.16-21.60Q36.20-21.60 38.64-19.24Q41.08-16.88 41.08-12.24L41.08-12.24L41.08 0L36.08 0L36.08-11.60Q36.08-14.40 34.76-15.82Q33.44-17.24 31-17.24L31-17.24Q28.24-17.24 26.64-15.58Q25.04-13.92 25.04-10.80L25.04-10.80L25.04 0L20.04 0L20.04-21.36L24.80-21.36L24.80-18.60Q26.04-20.08 27.92-20.84Q29.80-21.60 32.16-21.60L32.16-21.60Z M63.56-21.60Q67.60-21.60 70.04-19.24Q72.48-16.88 72.48-12.24L72.48-12.24L72.48 0L67.48 0L67.48-11.60Q67.48-14.40 66.16-15.82Q64.84-17.24 62.40-17.24L62.40-17.24Q59.64-17.24 58.04-15.58Q56.44-13.92 56.44-10.80L56.44-10.80L56.44 0L51.44 0L51.44-21.36L56.20-21.36L56.20-18.60Q57.44-20.08 59.32-20.84Q61.20-21.60 63.56-21.60L63.56-21.60Z M92.64 0.28Q89.40 0.28 86.80-1.12Q84.20-2.52 82.74-5.02Q81.28-7.52 81.28-10.68L81.28-10.68Q81.28-13.84 82.74-16.32Q84.20-18.80 86.80-20.20Q89.40-21.60 92.64-21.60L92.64-21.60Q95.92-21.60 98.52-20.20Q101.12-18.80 102.58-16.32Q104.04-13.84 104.04-10.68L104.04-10.68Q104.04-7.52 102.58-5.02Q101.12-2.52 98.52-1.12Q95.92 0.28 92.64 0.28L92.64 0.28ZM92.64-4Q95.40-4 97.20-5.84Q99-7.68 99-10.68L99-10.68Q99-13.68 97.20-15.52Q95.40-17.36 92.64-17.36L92.64-17.36Q89.88-17.36 88.10-15.52Q86.32-13.68 86.32-10.68L86.32-10.68Q86.32-7.68 88.10-5.84Q89.88-4 92.64-4L92.64-4Z M127.44-21.36L132.24-21.36L123.08 0L117.92 0L108.76-21.36L113.96-21.36L120.60-5.52L127.44-21.36Z M146.84-21.60Q151.56-21.60 154.06-19.34Q156.56-17.08 156.56-12.52L156.56-12.52L156.56 0L151.84 0L151.84-2.60Q150.92-1.20 149.22-0.46Q147.52 0.28 145.12 0.28L145.12 0.28Q142.72 0.28 140.92-0.54Q139.12-1.36 138.14-2.82Q137.16-4.28 137.16-6.12L137.16-6.12Q137.16-9 139.30-10.74Q141.44-12.48 146.04-12.48L146.04-12.48L151.56-12.48L151.56-12.80Q151.56-15.04 150.22-16.24Q148.88-17.44 146.24-17.44L146.24-17.44Q144.44-17.44 142.70-16.88Q140.96-16.32 139.76-15.32L139.76-15.32L137.80-18.96Q139.48-20.24 141.84-20.92Q144.20-21.60 146.84-21.60L146.84-21.60ZM146.16-3.36Q148.04-3.36 149.50-4.22Q150.96-5.08 151.56-6.68L151.56-6.68L151.56-9.16L146.40-9.16Q142.08-9.16 142.08-6.32L142.08-6.32Q142.08-4.96 143.16-4.16Q144.24-3.36 146.16-3.36L146.16-3.36Z M178.40-4.72L179.80-1.16Q178.92-0.44 177.66-0.08Q176.40 0.28 175 0.28L175 0.28Q171.48 0.28 169.56-1.56Q167.64-3.40 167.64-6.92L167.64-6.92L167.64-17.20L164.12-17.20L164.12-21.20L167.64-21.20L167.64-26.08L172.64-26.08L172.64-21.20L178.36-21.20L178.36-17.20L172.64-17.20L172.64-7.04Q172.64-5.48 173.40-4.66Q174.16-3.84 175.60-3.84L175.60-3.84Q177.28-3.84 178.40-4.72L178.40-4.72Z M187.92 0L187.92-21.36L192.92-21.36L192.92 0L187.92 0ZM190.44-24.88Q189.08-24.88 188.16-25.74Q187.24-26.60 187.24-27.88L187.24-27.88Q187.24-29.16 188.16-30.02Q189.08-30.88 190.44-30.88L190.44-30.88Q191.80-30.88 192.72-30.06Q193.64-29.24 193.64-28L193.64-28Q193.64-26.68 192.74-25.78Q191.84-24.88 190.44-24.88L190.44-24.88Z M213.08 0.28Q209.84 0.28 207.24-1.12Q204.64-2.52 203.18-5.02Q201.72-7.52 201.72-10.68L201.72-10.68Q201.72-13.84 203.18-16.32Q204.64-18.80 207.24-20.20Q209.84-21.60 213.08-21.60L213.08-21.60Q216.36-21.60 218.96-20.20Q221.56-18.80 223.02-16.32Q224.48-13.84 224.48-10.68L224.48-10.68Q224.48-7.52 223.02-5.02Q221.56-2.52 218.96-1.12Q216.36 0.28 213.08 0.28L213.08 0.28ZM213.08-4Q215.84-4 217.64-5.84Q219.44-7.68 219.44-10.68L219.44-10.68Q219.44-13.68 217.64-15.52Q215.84-17.36 213.08-17.36L213.08-17.36Q210.32-17.36 208.54-15.52Q206.76-13.68 206.76-10.68L206.76-10.68Q206.76-7.68 208.54-5.84Q210.32-4 213.08-4L213.08-4Z M245.40-21.60Q249.44-21.60 251.88-19.24Q254.32-16.88 254.32-12.24L254.32-12.24L254.32 0L249.32 0L249.32-11.60Q249.32-14.40 248.00-15.82Q246.68-17.24 244.24-17.24L244.24-17.24Q241.48-17.24 239.88-15.58Q238.28-13.92 238.28-10.80L238.28-10.80L238.28 0L233.28 0L233.28-21.36L238.04-21.36L238.04-18.60Q239.28-20.08 241.16-20.84Q243.04-21.60 245.40-21.60L245.40-21.60Z M287.88-21.60Q292.60-21.60 295.10-19.34Q297.60-17.08 297.60-12.52L297.60-12.52L297.60 0L292.88 0L292.88-2.60Q291.96-1.20 290.26-0.46Q288.56 0.28 286.16 0.28L286.16 0.28Q283.76 0.28 281.96-0.54Q280.16-1.36 279.18-2.82Q278.20-4.28 278.20-6.12L278.20-6.12Q278.20-9 280.34-10.74Q282.48-12.48 287.08-12.48L287.08-12.48L292.60-12.48L292.60-12.80Q292.60-15.04 291.26-16.24Q289.92-17.44 287.28-17.44L287.28-17.44Q285.48-17.44 283.74-16.88Q282.00-16.32 280.80-15.32L280.80-15.32L278.84-18.96Q280.52-20.24 282.88-20.92Q285.24-21.60 287.88-21.60L287.88-21.60ZM287.20-3.36Q289.08-3.36 290.54-4.22Q292.00-5.08 292.60-6.68L292.60-6.68L292.60-9.16L287.44-9.16Q283.12-9.16 283.12-6.32L283.12-6.32Q283.12-4.96 284.20-4.16Q285.28-3.36 287.20-3.36L287.20-3.36Z M312.76-18.24Q314.92-21.60 320.36-21.60L320.36-21.60L320.36-16.84Q319.72-16.96 319.20-16.96L319.20-16.96Q316.28-16.96 314.64-15.26Q313-13.56 313-10.36L313-10.36L313 0L308 0L308-21.36L312.76-21.36L312.76-18.24Z M355.56-21.60Q359.60-21.60 361.96-19.26Q364.32-16.92 364.32-12.24L364.32-12.24L364.32 0L359.32 0L359.32-11.60Q359.32-14.40 358.08-15.82Q356.84-17.24 354.52-17.24L354.52-17.24Q352.00-17.24 350.48-15.58Q348.96-13.92 348.96-10.84L348.96-10.84L348.96 0L343.96 0L343.96-11.60Q343.96-14.40 342.72-15.82Q341.48-17.24 339.16-17.24L339.16-17.24Q336.60-17.24 335.10-15.60Q333.60-13.96 333.60-10.84L333.60-10.84L333.60 0L328.60 0L328.60-21.36L333.36-21.36L333.36-18.64Q334.56-20.08 336.36-20.84Q338.16-21.60 340.36-21.60L340.36-21.60Q342.76-21.60 344.62-20.70Q346.48-19.80 347.56-18.04L347.56-18.04Q348.88-19.72 350.96-20.66Q353.04-21.60 355.56-21.60L355.56-21.60Z"/></g>
</svg>
</g><g opacity="1" transform="rotate(0 444.3533 327.8234)">
<svg width="270.6467" height="41.1384" x="444.3533" y="327.8234" version="1.1" preserveAspectRatio="none" viewBox="0.88 -28.48 190.51999999999998 28.96">
  <g transform="matrix(1 0 0 1 0 0)" class="companyName"><path d="M39.44-28L45.64-28L36.48 0L29.52 0L23.36-18.96L17 0L10.08 0L0.88-28L7.60-28L13.92-8.32L20.52-28L26.52-28L32.92-8.16L39.44-28Z M55.68-5.20L70.92-5.20L70.92 0L49.24 0L49.24-28L70.40-28L70.40-22.80L55.68-22.80L55.68-16.72L68.68-16.72L68.68-11.68L55.68-11.68L55.68-5.20Z M95.36-28L101.76-28L101.76 0L96.44 0L82.48-17L82.48 0L76.08 0L76.08-28L81.44-28L95.36-11L95.36-28Z M114.84-5.20L130.08-5.20L130.08 0L108.40 0L108.40-28L129.56-28L129.56-22.80L114.84-22.80L114.84-16.72L127.84-16.72L127.84-11.68L114.84-11.68L114.84-5.20Z M160.08 0L152.60 0L145.84-9.72L139.20 0L131.76 0L142.12-14.24L132.28-28L139.64-28L146.08-18.92L152.40-28L159.40-28L149.64-14.48L160.08 0Z M176.08 0.48Q171.72 0.48 168.22-1.40Q164.72-3.28 162.74-6.58Q160.76-9.88 160.76-14L160.76-14Q160.76-18.12 162.74-21.42Q164.72-24.72 168.22-26.60Q171.72-28.48 176.08-28.48L176.08-28.48Q180.44-28.48 183.92-26.60Q187.40-24.72 189.40-21.42Q191.40-18.12 191.40-14L191.40-14Q191.40-9.88 189.40-6.58Q187.40-3.28 183.92-1.40Q180.44 0.48 176.08 0.48L176.08 0.48ZM176.08-5.04Q178.56-5.04 180.56-6.18Q182.56-7.32 183.70-9.36Q184.84-11.40 184.84-14L184.84-14Q184.84-16.60 183.70-18.64Q182.56-20.68 180.56-21.82Q178.56-22.96 176.08-22.96L176.08-22.96Q173.60-22.96 171.60-21.82Q169.60-20.68 168.46-18.64Q167.32-16.60 167.32-14L167.32-14Q167.32-11.40 168.46-9.36Q169.60-7.32 171.60-6.18Q173.60-5.04 176.08-5.04L176.08-5.04Z"/></g>
</svg>
</g><g opacity="1" transform="rotate(0 430.6405 309.3111)">
<svg width="2.7425" height="100.3778" x="430.6405" y="309.3111" version="1.1" preserveAspectRatio="none" viewBox="0 0 2.7425 100.3778">
  <rect x="0" y="0" width="2.7425" height="100.3778" class="companyName shapeStroke-str" style="stroke-width:0;" rx="0px" ry="0px" />
</svg>
</g></svg>